<?xml version="1.0" encoding="UTF-8"?>
<!-- Created with Inkscape (http://www.inkscape.org/) -->
<svg width="461pt" height="107pt" version="1.1" viewBox="0 0 461 107" xmlns="http://www.w3.org/2000/svg" xmlns:cc="http://creativecommons.org/ns#" xmlns:dc="http://purl.org/dc/elements/1.1/" xmlns:rdf="http://www.w3.org/1999/02/22-rdf-syntax-ns#">
 <metadata>
  <rdf:RDF>
   <cc:Work rdf:about="">
    <dc:format>image/svg+xml</dc:format>
    <dc:type rdf:resource="http://purl.org/dc/dcmitype/StillImage"/>
    <dc:title/>
   </cc:Work>
  </rdf:RDF>
 </metadata>
 <path d="m42.028 27.768h10.506v12.008h-10.506z" opacity="0"/>
 <path d="m42.028 27.768h10.506v12.008h-10.506z" opacity="0" stroke-width=".75049"/>
 <path d="m59.289 37.525h10.507v12.007h-10.507z" opacity="0"/>
 <path d="m59.289 37.525h10.507v12.007h-10.507z" opacity="0" stroke-width=".75049"/>
 <path d="m59.289 57.037h10.507v12.008h-10.507z" opacity="0"/>
 <path d="m59.289 57.037h10.507v12.008h-10.507z" opacity="0" stroke-width=".75049"/>
 <path d="m76.55 27.768h10.507v12.008h-10.507z" opacity="0"/>
 <path d="m76.55 27.768h10.507v12.008h-10.507z" opacity="0" stroke-width=".75049"/>
 <path d="m93.812 37.525h9.758v12.007h-9.758z" opacity="0"/>
 <path d="m93.812 37.525h9.758v12.007h-9.758z" opacity="0" stroke-width=".75049"/>
 <path d="m25.517 37.525h9.756v12.007h-9.756z" opacity="0"/>
 <path d="m25.517 37.525h9.756v12.007h-9.756z" opacity="0" stroke-width=".75049"/>
 <path d="m25.517 57.037h9.756v12.008h-9.756z" opacity="0"/>
 <path d="m25.517 57.037h9.756v12.008h-9.756z" opacity="0" stroke-width=".75049"/>
 <path d="m8.2554 27.768h9.7566v12.008h-9.7566z" opacity="0"/>
 <path d="m8.2554 27.768h9.7566v12.008h-9.7566z" opacity="0" stroke-width=".75049"/>
 <path d="m52.534 9.7564h9.757v12.008h-9.757z" opacity="0"/>
 <path d="m52.534 9.7564h9.757v12.008h-9.757z" opacity="0" stroke-width=".75049"/>
 <path d="m32.271 10.507h9.757v12.008h-9.757z" opacity="0"/>
 <path d="m32.271 10.507h9.757v12.008h-9.757z" opacity="0" stroke-width=".75049"/>
 <g fill="none" stroke="#000" stroke-linejoin="round" stroke-miterlimit="10" stroke-width=".75049">
  <path d="m51.59 27.018 2.689-4.503"/>
  <path d="m53.285 37.867 5.253 3.033"/>
  <path d="m42.969 27.018-2.167-3.753"/>
  <path d="m24.766 41.246-6.004-3.466"/>
 </g>
 <g stroke-linejoin="round" stroke-miterlimit="10" stroke-width=".75049">
  <path d="m70.546 40.726 5.254-3.032" fill="#00f" stroke="#00f"/>
  <path d="m36.024 40.813 5.253-3.033" fill="none" stroke="#000"/>
  <path d="m65.893 50.283v6.004" fill="#f00" stroke="#ff0101"/>
 </g>
 <g fill="none" stroke-linejoin="round" stroke-miterlimit="10" stroke-width=".75049">
  <path d="m62.891 50.283v6.004" stroke="#ff0101"/>
  <path d="m87.808 37.954 5.253 3.032" stroke="#00f"/>
  <path d="m30.02 50.283v6.004" stroke="#000"/>
 </g>
 <path d="m49.637 35.933 1.168 0.295c-0.245 0.958-0.685 1.69-1.321 2.193s-1.413 0.755-2.332 0.755c-0.95 0-1.723-0.194-2.319-0.581s-1.049-0.947-1.36-1.681-0.466-1.523-0.466-2.365c0-0.918 0.175-1.72 0.526-2.404s0.851-1.203 1.499-1.558c0.647-0.355 1.36-0.532 2.139-0.532 0.882 0 1.624 0.224 2.226 0.673 0.601 0.45 1.021 1.081 1.257 1.896l-1.149 0.27c-0.205-0.641-0.501-1.109-0.89-1.401-0.39-0.293-0.879-0.44-1.469-0.44-0.677 0-1.244 0.163-1.699 0.488-0.456 0.325-0.775 0.761-0.96 1.308-0.185 0.548-0.277 1.112-0.277 1.694 0 0.75 0.11 1.405 0.328 1.965 0.219 0.559 0.559 0.977 1.02 1.254s0.961 0.415 1.498 0.415c0.654 0 1.208-0.188 1.661-0.565s0.76-0.937 0.92-1.679zm1.655 3.093" fill-rule="evenodd"/>
 <path d="m42.028 27.768h10.506v13.509h-10.506z" opacity="0"/>
 <path d="m42.028 27.768h10.506v13.509h-10.506z" opacity="0" stroke-width=".75049"/>
 <path d="m66.899 45.689 1.167 0.295c-0.245 0.959-0.685 1.69-1.321 2.193-0.636 0.504-1.413 0.755-2.331 0.755-0.951 0-1.724-0.193-2.32-0.58-0.595-0.387-1.049-0.948-1.36-1.682-0.31-0.734-0.466-1.522-0.466-2.365 0-0.918 0.176-1.719 0.527-2.403s0.85-1.204 1.498-1.559 1.361-0.532 2.139-0.532c0.882 0 1.624 0.225 2.226 0.674s1.021 1.081 1.258 1.895l-1.15 0.271c-0.204-0.642-0.501-1.109-0.89-1.402s-0.879-0.439-1.468-0.439c-0.678 0-1.245 0.162-1.7 0.487s-0.775 0.761-0.96 1.309c-0.184 0.547-0.276 1.112-0.276 1.693 0 0.751 0.109 1.405 0.327 1.965 0.219 0.56 0.559 0.978 1.02 1.254 0.462 0.277 0.961 0.416 1.498 0.416 0.654 0 1.208-0.189 1.661-0.566s0.76-0.937 0.921-1.679zm1.654 3.093" fill="#ff0101" fill-rule="evenodd"/>
 <path d="m59.289 37.525h10.507v13.508h-10.507z" opacity="0"/>
 <path d="m59.289 37.525h10.507v13.508h-10.507z" opacity="0" stroke-width=".75049"/>
 <path d="m59.949 63.999c0-1.464 0.393-2.61 1.18-3.439 0.786-0.828 1.801-1.242 3.044-1.242 0.814 0 1.548 0.194 2.202 0.583s1.152 0.932 1.495 1.628 0.515 1.485 0.515 2.368c0 0.894-0.181 1.694-0.542 2.4s-0.872 1.241-1.534 1.604-1.376 0.544-2.142 0.544c-0.83 0-1.572-0.2-2.226-0.601-0.654-0.402-1.149-0.949-1.486-1.643s-0.506-1.428-0.506-2.202zm1.204 0.02c0 1.063 0.285 1.9 0.857 2.512s1.289 0.917 2.151 0.917c0.879 0 1.602-0.308 2.169-0.926 0.568-0.618 0.851-1.494 0.852-2.63 0-0.718-0.122-1.344-0.365-1.88-0.242-0.535-0.597-0.95-1.064-1.245-0.468-0.295-0.992-0.442-1.574-0.442-0.826 0-1.537 0.283-2.133 0.851-0.596 0.567-0.893 1.515-0.893 2.843zm7.785 4.278" fill="#f00" fill-rule="evenodd"/>
 <path d="m59.289 57.037h10.507v13.509h-10.507z" opacity="0"/>
 <path d="m59.289 57.037h10.507v13.509h-10.507z" opacity="0" stroke-width=".75049"/>
 <path d="m77.211 34.73c0-1.464 0.393-2.611 1.179-3.439s1.801-1.242 3.044-1.242c0.815 0 1.549 0.194 2.203 0.583 0.653 0.389 1.152 0.932 1.495 1.628s0.514 1.485 0.514 2.367c0 0.895-0.18 1.695-0.541 2.401s-0.873 1.24-1.535 1.603c-0.661 0.364-1.375 0.545-2.142 0.545-0.83 0-1.572-0.201-2.226-0.602s-1.149-0.948-1.486-1.642-0.505-1.428-0.505-2.202zm1.203 0.02c0 1.063 0.286 1.9 0.857 2.512 0.572 0.611 1.289 0.917 2.151 0.917 0.879 0 1.602-0.309 2.169-0.926 0.568-0.618 0.852-1.495 0.852-2.63 0-0.718-0.122-1.344-0.364-1.88-0.243-0.535-0.598-0.951-1.065-1.245-0.467-0.295-0.992-0.443-1.574-0.443-0.826 0-1.537 0.284-2.133 0.852-0.595 0.567-0.893 1.515-0.893 2.843zm7.786 4.278" fill="#00f" fill-rule="evenodd"/>
 <path d="m76.55 27.768h10.507v13.509h-10.507z" opacity="0"/>
 <path d="m76.55 27.768h10.507v13.509h-10.507z" opacity="0" stroke-width=".75049"/>
 <path d="m94.855 48.782v-8.821h1.167v3.622h4.588v-3.622h1.16v8.821h-1.16v-4.158h-4.588v4.158zm7.915 0" fill="#00f" fill-rule="evenodd"/>
 <path d="m93.812 37.525h9.758v13.508h-9.758z" opacity="0"/>
 <path d="m93.812 37.525h9.758v13.508h-9.758z" opacity="0" stroke-width=".75049"/>
 <path d="m26.545 48.782v-8.821h1.197l4.633 6.926v-6.926h1.119v8.821h-1.197l-4.633-6.931v6.931zm7.96 0" fill-rule="evenodd"/>
 <path d="m25.517 37.525h9.756v13.508h-9.756z" opacity="0"/>
 <path d="m25.517 37.525h9.756v13.508h-9.756z" opacity="0" stroke-width=".75049"/>
 <path d="m26.56 68.295v-8.821h1.167v3.622h4.585v-3.622h1.167v8.821h-1.167v-4.158h-4.585v4.158zm7.912 0" fill-rule="evenodd"/>
 <path d="m25.517 57.037h9.756v13.509h-9.756z" opacity="0"/>
 <path d="m25.517 57.037h9.756v13.509h-9.756z" opacity="0" stroke-width=".75049"/>
 <path d="m9.2987 39.026v-8.821h1.1673v3.622h4.585v-3.622h1.167v8.821h-1.167v-4.158h-4.585v4.158zm7.9123 0" fill-rule="evenodd"/>
 <path d="m8.2554 27.768h9.7566v13.509h-9.7566z" opacity="0"/>
 <path d="m8.2554 27.768h9.7566v13.509h-9.7566z" opacity="0" stroke-width=".75049"/>
 <path d="m53.151 21.014v-8.821h3.91c0.787 0 1.384 0.08 1.793 0.238 0.41 0.158 0.737 0.438 0.981 0.839 0.245 0.401 0.367 0.845 0.367 1.33 0 0.626-0.202 1.153-0.607 1.582-0.406 0.429-1.031 0.702-1.878 0.819 0.309 0.148 0.544 0.294 0.704 0.439 0.341 0.313 0.664 0.704 0.969 1.173l1.534 2.401h-1.468l-1.167-1.835c-0.341-0.53-0.622-0.935-0.842-1.216-0.221-0.281-0.419-0.477-0.593-0.589-0.175-0.113-0.352-0.191-0.533-0.235-0.132-0.03-0.349-0.04-0.649-0.04h-1.354v3.917zm1.167-4.928h2.509c0.533 0 0.95-0.05 1.251-0.165 0.301-0.111 0.53-0.287 0.686-0.53 0.157-0.243 0.235-0.506 0.235-0.791 0-0.417-0.152-0.76-0.454-1.029-0.303-0.269-0.782-0.403-1.435-0.403h-2.792zm6.763 4.928" fill-rule="evenodd"/>
 <path d="m52.534 9.7564h9.757v13.509h-9.757z" opacity="0"/>
 <path d="m52.534 9.7564h9.757v13.509h-9.757z" opacity="0" stroke-width=".75049"/>
 <path d="m33.314 21.764v-8.82h1.168v3.622h4.585v-3.622h1.167v8.82h-1.167v-4.157h-4.585v4.157zm7.913 0" fill-rule="evenodd"/>
 <path d="m32.271 10.507h9.757v13.509h-9.757z" opacity="0"/>
 <path d="m32.271 10.507h9.757v13.509h-9.757z" opacity="0" stroke-width=".75049"/>
 <path d="m350.48 10.507h9.76v12.008h-9.76z" opacity="0"/>
 <path d="m350.48 10.507h9.76v12.008h-9.76z" opacity="0" stroke-width=".75049"/>
 <path d="m339.22 27.768h10.51v12.008h-10.51z" opacity="0"/>
 <path d="m339.22 27.768h10.51v12.008h-10.51z" opacity="0" stroke-width=".75049"/>
 <path d="m356.48 37.525h10.51v12.007h-10.51z" opacity="0"/>
 <path d="m356.48 37.525h10.51v12.007h-10.51z" opacity="0" stroke-width=".75049"/>
 <path d="m356.48 57.788h10.51v12.008h-10.51z" opacity="0"/>
 <path d="m356.48 57.788h10.51v12.008h-10.51z" opacity="0" stroke-width=".75049"/>
 <path d="m322.71 37.525h9.76v12.007h-9.76z" opacity="0"/>
 <path d="m322.71 37.525h9.76v12.007h-9.76z" opacity="0" stroke-width=".75049"/>
 <path d="m322.71 57.788h9.76v12.008h-9.76z" opacity="0"/>
 <path d="m322.71 57.788h9.76v12.008h-9.76z" opacity="0" stroke-width=".75049"/>
 <path d="m305.45 27.768h9.76v12.008h-9.76z" opacity="0"/>
 <path d="m305.45 27.768h9.76v12.008h-9.76z" opacity="0" stroke-width=".75049"/>
 <path d="m330.22 10.507h9.75v12.008h-9.75z" opacity="0"/>
 <path d="m330.22 10.507h9.75v12.008h-9.75z" opacity="0" stroke-width=".75049"/>
 <path d="m374.5 27.768h9.75v12.008h-9.75z" opacity="0"/>
 <path d="m374.5 27.768h9.75v12.008h-9.75z" opacity="0" stroke-width=".75049"/>
 <path d="m391.01 37.525h10.5v12.007h-10.5z" opacity="0"/>
 <path d="m391.01 37.525h10.5v12.007h-10.5z" opacity="0" stroke-width=".75049"/>
 <path d="m408.27 27.768h10.5v12.008h-10.5z" opacity="0"/>
 <path d="m408.27 27.768h10.5v12.008h-10.5z" opacity="0" stroke-width=".75049"/>
 <path d="m374.5 8.2554h9.75v12.008h-9.75z" opacity="0"/>
 <path d="m374.5 8.2554h9.75v12.008h-9.75z" opacity="0" stroke-width=".75049"/>
 <path d="m380.5 55.536h9.76v12.008h-9.76z" opacity="0"/>
 <path d="m380.5 55.536h9.76v12.008h-9.76z" opacity="0" stroke-width=".75049"/>
 <path d="m408.27 8.2554h10.5v12.008h-10.5z" opacity="0"/>
 <path d="m408.27 8.2554h10.5v12.008h-10.5z" opacity="0" stroke-width=".75049"/>
 <path d="m425.53 37.525h10.51v12.007h-10.51z" opacity="0"/>
 <path d="m425.53 37.525h10.51v12.007h-10.51z" opacity="0" stroke-width=".75049"/>
 <path d="m442.79 27.768h9.76v12.008h-9.76z" opacity="0"/>
 <path d="m442.79 27.768h9.76v12.008h-9.76z" opacity="0" stroke-width=".75049"/>
 <path d="m401.51 55.536h9.76v12.008h-9.76z" opacity="0"/>
 <path d="m401.51 55.536h9.76v12.008h-9.76z" opacity="0" stroke-width=".75049"/>
 <g fill="none" stroke-linejoin="round" stroke-miterlimit="10" stroke-width=".75049">
  <g stroke="#000">
   <path d="m327.59 50.283v6.754"/>
   <path d="m350.48 38.028 5.25 3.035"/>
   <path d="m399.45 50.283 2.49 4.503"/>
   <path d="m392.73 50.283-2.88 4.503"/>
  </g>
  <path d="m367.74 41.313 6.01-3.462" stroke="#f00"/>
  <g stroke="#000">
   <path d="m349.38 27.018 2.24-3.753"/>
   <path d="m340.32 27.018-2.17-3.753"/>
   <path d="m385 38.108 5.26 3.034"/>
  </g>
  <path d="m363.45 50.283v6.754" stroke="#f00"/>
  <path d="m360.45 50.283v6.754" stroke="#f00"/>
  <g stroke="#000">
   <path d="m412.02 27.018v-6.004"/>
   <path d="m415.02 27.018v-6.004"/>
   <path d="m333.22 41.404 5.25-3.034"/>
   <path d="m402.26 41.229 5.26-3.033"/>
   <path d="m321.96 41.4-6-3.468"/>
   <path d="m436.79 41.143 5.25-3.033"/>
  </g>
  <path d="m379.16 27.018v-6.004" stroke="#f00"/>
  <path d="m419.53 38.198 5.25 3.033" stroke="#000"/>
 </g>
 <path d="m351.1 21.764v-8.82h3.91c0.78 0 1.38 0.08 1.79 0.237 0.41 0.159 0.74 0.439 0.98 0.84 0.25 0.401 0.37 0.844 0.37 1.329 0 0.626-0.2 1.154-0.61 1.583s-1.03 0.702-1.88 0.818c0.31 0.148 0.55 0.295 0.71 0.439 0.34 0.313 0.66 0.704 0.97 1.174l1.53 2.4h-1.47l-1.17-1.835c-0.34-0.529-0.62-0.934-0.84-1.215s-0.42-0.478-0.59-0.59c-0.18-0.112-0.35-0.19-0.53-0.235-0.14-0.03-0.35-0.04-0.65-0.04h-1.36v3.917zm1.16-4.927h2.51c0.54 0 0.95-0.06 1.25-0.166 0.3-0.11 0.53-0.287 0.69-0.529 0.16-0.243 0.23-0.507 0.23-0.792 0-0.417-0.15-0.76-0.45-1.029-0.3-0.268-0.78-0.403-1.44-0.403h-2.79zm6.77 4.927" fill-rule="evenodd"/>
 <path d="m350.48 10.507h9.76v13.509h-9.76z" opacity="0"/>
 <path d="m350.48 10.507h9.76v13.509h-9.76z" opacity="0" stroke-width=".75049"/>
 <path d="m346.83 35.933 1.17 0.295c-0.25 0.958-0.69 1.69-1.32 2.193-0.64 0.503-1.41 0.755-2.33 0.755-0.95 0-1.73-0.194-2.32-0.581-0.6-0.387-1.05-0.947-1.36-1.681s-0.47-1.523-0.47-2.365c0-0.918 0.18-1.72 0.53-2.404s0.85-1.203 1.5-1.558c0.64-0.355 1.36-0.532 2.14-0.532 0.88 0 1.62 0.224 2.22 0.673 0.6 0.45 1.02 1.081 1.26 1.896l-1.15 0.27c-0.2-0.641-0.5-1.109-0.89-1.401-0.39-0.293-0.88-0.44-1.47-0.44-0.68 0-1.24 0.163-1.7 0.488-0.45 0.325-0.77 0.761-0.96 1.308-0.18 0.548-0.27 1.112-0.27 1.694 0 0.75 0.1 1.405 0.32 1.965 0.22 0.559 0.56 0.977 1.02 1.254s0.96 0.415 1.5 0.415c0.65 0 1.21-0.188 1.66-0.565s0.76-0.937 0.92-1.679zm1.66 3.093" fill-rule="evenodd"/>
 <path d="m339.22 27.768h10.51v13.509h-10.51z" opacity="0"/>
 <path d="m339.22 27.768h10.51v13.509h-10.51z" opacity="0" stroke-width=".75049"/>
 <path d="m364.09 45.689 1.17 0.295c-0.24 0.959-0.68 1.69-1.32 2.193-0.64 0.504-1.41 0.755-2.33 0.755-0.95 0-1.73-0.193-2.32-0.58-0.6-0.387-1.05-0.948-1.36-1.682s-0.47-1.522-0.47-2.365c0-0.918 0.18-1.719 0.53-2.403s0.85-1.204 1.5-1.559 1.36-0.532 2.14-0.532c0.88 0 1.62 0.225 2.22 0.674s1.02 1.081 1.26 1.895l-1.15 0.271c-0.2-0.642-0.5-1.109-0.89-1.402s-0.88-0.439-1.47-0.439c-0.68 0-1.24 0.162-1.7 0.487-0.45 0.325-0.77 0.761-0.96 1.309-0.18 0.547-0.27 1.112-0.27 1.693 0 0.751 0.11 1.405 0.32 1.965 0.22 0.56 0.56 0.978 1.02 1.254 0.47 0.277 0.96 0.416 1.5 0.416 0.66 0 1.21-0.189 1.66-0.566 0.46-0.377 0.76-0.937 0.92-1.679zm1.66 3.093" fill="#f00" fill-rule="evenodd"/>
 <path d="m356.48 37.525h10.51v13.508h-10.51z" opacity="0"/>
 <path d="m356.48 37.525h10.51v13.508h-10.51z" opacity="0" stroke-width=".75049"/>
 <path d="m357.14 64.749c0-1.464 0.4-2.61 1.18-3.438 0.79-0.829 1.8-1.243 3.05-1.243 0.81 0 1.55 0.195 2.2 0.584s1.15 0.931 1.5 1.627c0.34 0.696 0.51 1.486 0.51 2.368 0 0.894-0.18 1.695-0.54 2.401s-0.87 1.24-1.54 1.603c-0.66 0.363-1.37 0.545-2.14 0.545-0.83 0-1.57-0.201-2.22-0.602-0.66-0.401-1.15-0.949-1.49-1.643-0.34-0.693-0.51-1.428-0.51-2.202zm1.21 0.02c0 1.063 0.28 1.901 0.85 2.512 0.58 0.612 1.29 0.918 2.16 0.918s1.6-0.309 2.16-0.927c0.57-0.617 0.86-1.494 0.86-2.629 0-0.718-0.12-1.345-0.37-1.88-0.24-0.536-0.6-0.951-1.06-1.246-0.47-0.295-0.99-0.442-1.58-0.442-0.82 0-1.53 0.284-2.13 0.851-0.59 0.568-0.89 1.516-0.89 2.843zm7.78 4.278" fill="#f00" fill-rule="evenodd"/>
 <path d="m356.48 57.788h10.51v13.509h-10.51z" opacity="0"/>
 <path d="m356.48 57.788h10.51v13.509h-10.51z" opacity="0" stroke-width=".75049"/>
 <path d="m323.74 48.782v-8.821h1.2l4.63 6.926v-6.926h1.12v8.821h-1.2l-4.63-6.931v6.931zm7.96 0" fill-rule="evenodd"/>
 <path d="m322.71 37.525h9.76v13.508h-9.76z" opacity="0"/>
 <path d="m322.71 37.525h9.76v13.508h-9.76z" opacity="0" stroke-width=".75049"/>
 <path d="m323.75 69.045v-8.82h1.17v3.622h4.59v-3.622h1.16v8.82h-1.16v-4.157h-4.59v4.157zm7.92 0" fill-rule="evenodd"/>
 <path d="m322.71 57.788h9.76v13.509h-9.76z" opacity="0"/>
 <path d="m322.71 57.788h9.76v13.509h-9.76z" opacity="0" stroke-width=".75049"/>
 <path d="m306.49 39.026v-8.821h1.17v3.622h4.59v-3.622h1.16v8.821h-1.16v-4.158h-4.59v4.158zm7.92 0" fill-rule="evenodd"/>
 <path d="m305.45 27.768h9.76v13.509h-9.76z" opacity="0"/>
 <path d="m305.45 27.768h9.76v13.509h-9.76z" opacity="0" stroke-width=".75049"/>
 <path d="m331.26 21.764v-8.82h1.17v3.622h4.58v-3.622h1.17v8.82h-1.17v-4.157h-4.58v4.157zm7.91 0" fill-rule="evenodd"/>
 <path d="m330.22 10.507h9.75v13.509h-9.75z" opacity="0"/>
 <path d="m330.22 10.507h9.75v13.509h-9.75z" opacity="0" stroke-width=".75049"/>
 <path d="m375.52 39.026v-8.821h1.2l4.63 6.925v-6.925h1.12v8.821h-1.19l-4.64-6.932v6.932zm7.96 0" fill="#f00" fill-rule="evenodd"/>
 <path d="m374.5 27.768h9.75v13.509h-9.75z" opacity="0"/>
 <path d="m374.5 27.768h9.75v13.509h-9.75z" opacity="0" stroke-width=".75049"/>
 <path d="m398.62 45.689 1.16 0.295c-0.24 0.959-0.68 1.69-1.32 2.193-0.63 0.504-1.41 0.755-2.33 0.755-0.95 0-1.72-0.193-2.32-0.58-0.59-0.387-1.05-0.948-1.36-1.682s-0.46-1.522-0.46-2.365c0-0.918 0.17-1.719 0.52-2.403s0.85-1.204 1.5-1.559 1.36-0.532 2.14-0.532c0.88 0 1.62 0.225 2.23 0.674 0.6 0.449 1.02 1.081 1.25 1.895l-1.15 0.271c-0.2-0.642-0.5-1.109-0.89-1.402s-0.88-0.439-1.46-0.439c-0.68 0-1.25 0.162-1.7 0.487-0.46 0.325-0.78 0.761-0.96 1.309-0.19 0.547-0.28 1.112-0.28 1.693 0 0.751 0.11 1.405 0.33 1.965s0.56 0.978 1.02 1.254c0.46 0.277 0.96 0.416 1.5 0.416 0.65 0 1.2-0.189 1.66-0.566 0.45-0.377 0.76-0.937 0.92-1.679zm1.65 3.093" fill-rule="evenodd"/>
 <path d="m391.01 37.525h10.5v13.508h-10.5z" opacity="0"/>
 <path d="m391.01 37.525h10.5v13.508h-10.5z" opacity="0" stroke-width=".75049"/>
 <path d="m415.88 35.933 1.16 0.295c-0.24 0.958-0.68 1.69-1.32 2.193-0.63 0.503-1.41 0.755-2.33 0.755-0.95 0-1.72-0.194-2.32-0.581-0.59-0.387-1.05-0.947-1.36-1.681s-0.46-1.523-0.46-2.365c0-0.918 0.17-1.72 0.52-2.404s0.85-1.203 1.5-1.558 1.36-0.532 2.14-0.532c0.88 0 1.63 0.224 2.23 0.673 0.6 0.45 1.02 1.081 1.25 1.896l-1.14 0.27c-0.21-0.641-0.51-1.109-0.9-1.401-0.38-0.293-0.87-0.44-1.46-0.44-0.68 0-1.25 0.163-1.7 0.488-0.46 0.325-0.78 0.761-0.96 1.308-0.19 0.548-0.28 1.112-0.28 1.694 0 0.75 0.11 1.405 0.33 1.965 0.22 0.559 0.56 0.977 1.02 1.254s0.96 0.415 1.5 0.415c0.65 0 1.2-0.188 1.66-0.565 0.45-0.377 0.76-0.937 0.92-1.679zm1.65 3.093" fill-rule="evenodd"/>
 <path d="m408.27 27.768h10.5v13.509h-10.5z" opacity="0"/>
 <path d="m408.27 27.768h10.5v13.509h-10.5z" opacity="0" stroke-width=".75049"/>
 <path d="m375.54 19.513v-8.821h1.17v3.622h4.58v-3.622h1.17v8.821h-1.17v-4.158h-4.58v4.158zm7.91 0" fill="#f00" fill-rule="evenodd"/>
 <path d="m374.5 8.2554h9.75v13.509h-9.75z" opacity="0"/>
 <path d="m374.5 8.2554h9.75v13.509h-9.75z" opacity="0" stroke-width=".75049"/>
 <path d="m381.12 66.794v-8.821h3.91c0.78 0 1.38 0.08 1.79 0.238s0.74 0.438 0.98 0.839 0.37 0.845 0.37 1.33c0 0.626-0.21 1.153-0.61 1.582-0.41 0.43-1.03 0.702-1.88 0.819 0.31 0.148 0.55 0.294 0.71 0.439 0.34 0.313 0.66 0.704 0.97 1.173l1.53 2.401h-1.47l-1.17-1.835c-0.34-0.53-0.62-0.935-0.84-1.216-0.22-0.28-0.42-0.477-0.59-0.589-0.18-0.113-0.35-0.191-0.53-0.235-0.14-0.03-0.35-0.04-0.65-0.04h-1.36v3.917zm1.16-4.928h2.51c0.54 0 0.95-0.05 1.25-0.165 0.3-0.111 0.53-0.287 0.69-0.53s0.23-0.506 0.23-0.791c0-0.417-0.15-0.76-0.45-1.029s-0.78-0.403-1.44-0.403h-2.79zm6.77 4.928" fill-rule="evenodd"/>
 <path d="m380.5 55.536h9.76v13.509h-9.76z" opacity="0"/>
 <path d="m380.5 55.536h9.76v13.509h-9.76z" opacity="0" stroke-width=".75049"/>
 <path d="m408.93 15.217c0-1.464 0.39-2.61 1.18-3.439 0.78-0.828 1.8-1.242 3.04-1.242 0.82 0 1.55 0.194 2.2 0.583 0.66 0.389 1.16 0.932 1.5 1.628s0.51 1.485 0.51 2.368c0 0.894-0.18 1.694-0.54 2.4s-0.87 1.241-1.53 1.604-1.38 0.544-2.14 0.544c-0.83 0-1.58-0.2-2.23-0.601-0.65-0.402-1.15-0.949-1.49-1.643-0.33-0.694-0.5-1.428-0.5-2.202zm1.2 0.02c0 1.063 0.29 1.9 0.86 2.512s1.29 0.917 2.15 0.917c0.88 0 1.6-0.308 2.17-0.926s0.85-1.494 0.85-2.629c0-0.718-0.12-1.345-0.36-1.881-0.25-0.535-0.6-0.95-1.07-1.245s-0.99-0.442-1.57-0.442c-0.83 0-1.54 0.283-2.14 0.851-0.59 0.568-0.89 1.515-0.89 2.843zm7.79 4.278" fill-rule="evenodd"/>
 <path d="m408.27 8.2554h10.5v13.509h-10.5z" opacity="0"/>
 <path d="m408.27 8.2554h10.5v13.509h-10.5z" opacity="0" stroke-width=".75049"/>
 <path d="m426.19 44.486c0-1.464 0.39-2.61 1.18-3.439 0.78-0.828 1.8-1.242 3.04-1.242 0.82 0 1.55 0.194 2.21 0.584 0.65 0.389 1.15 0.931 1.49 1.627s0.52 1.485 0.52 2.368c0 0.894-0.19 1.694-0.55 2.4s-0.87 1.241-1.53 1.604-1.38 0.544-2.14 0.544c-0.83 0-1.58-0.2-2.23-0.601s-1.15-0.949-1.49-1.643c-0.33-0.694-0.5-1.428-0.5-2.202zm1.2 0.02c0 1.063 0.29 1.9 0.86 2.512s1.29 0.918 2.15 0.918c0.88 0 1.6-0.309 2.17-0.927s0.85-1.494 0.85-2.629c0-0.718-0.12-1.345-0.36-1.881-0.25-0.535-0.6-0.95-1.07-1.245-0.46-0.295-0.99-0.442-1.57-0.442-0.83 0-1.54 0.284-2.13 0.851-0.6 0.568-0.9 1.515-0.9 2.843zm7.79 4.278" fill-rule="evenodd"/>
 <path d="m425.53 37.525h10.51v13.508h-10.51z" opacity="0"/>
 <path d="m425.53 37.525h10.51v13.508h-10.51z" opacity="0" stroke-width=".75049"/>
 <path d="m443.83 39.026v-8.821h1.17v3.622h4.59v-3.622h1.16v8.821h-1.16v-4.158h-4.59v4.158zm7.92 0" fill-rule="evenodd"/>
 <path d="m442.79 27.768h9.76v13.509h-9.76z" opacity="0"/>
 <path d="m442.79 27.768h9.76v13.509h-9.76z" opacity="0" stroke-width=".75049"/>
 <path d="m402.56 66.794v-8.821h1.16v3.622h4.59v-3.622h1.17v8.821h-1.17v-4.158h-4.59v4.158zm7.91 0" fill-rule="evenodd"/>
 <path d="m401.51 55.536h9.76v13.509h-9.76z" opacity="0"/>
 <path d="m401.51 55.536h9.76v13.509h-9.76z" opacity="0" stroke-width=".75049"/>
 <path d="m184.62 9.7564h10.51v12.008h-10.51z" opacity="0"/>
 <path d="m184.62 9.7564h10.51v12.008h-10.51z" opacity="0" stroke-width=".75049"/>
 <path d="m150.85 9.7564h9.76v12.008h-9.76z" opacity="0"/>
 <path d="m150.85 9.7564h9.76v12.008h-9.76z" opacity="0" stroke-width=".75049"/>
 <path d="m201.88 39.026h10.51v12.007h-10.51z" opacity="0"/>
 <path d="m201.88 39.026h10.51v12.007h-10.51z" opacity="0" stroke-width=".75049"/>
 <path d="m219.14 29.269h9.76v12.008h-9.76z" opacity="0"/>
 <path d="m219.14 29.269h9.76v12.008h-9.76z" opacity="0" stroke-width=".75049"/>
 <path d="m177.87 57.037h9.75v12.008h-9.75z" opacity="0"/>
 <path d="m177.87 57.037h9.75v12.008h-9.75z" opacity="0" stroke-width=".75049"/>
 <path d="m156.85 57.037h9.76v12.008h-9.76z" opacity="0"/>
 <path d="m156.85 57.037h9.76v12.008h-9.76z" opacity="0" stroke-width=".75049"/>
 <path d="m184.62 29.269h10.51v12.008h-10.51z" opacity="0"/>
 <path d="m184.62 29.269h10.51v12.008h-10.51z" opacity="0" stroke-width=".75049"/>
 <path d="m150.85 29.269h9.76v12.008h-9.76z" opacity="0"/>
 <path d="m150.85 29.269h9.76v12.008h-9.76z" opacity="0" stroke-width=".75049"/>
 <path d="m167.36 39.026h10.51v12.007h-10.51z" opacity="0"/>
 <path d="m167.36 39.026h10.51v12.007h-10.51z" opacity="0" stroke-width=".75049"/>
 <path d="m133.59 39.026h9.75v12.007h-9.75z" opacity="0"/>
 <g stroke-width=".75049">
  <path d="m133.59 39.026h9.75v12.007h-9.75z" opacity="0"/>
  <path d="m175.8 51.784 2.49 4.503" fill="none" stroke="#000" stroke-linejoin="round" stroke-miterlimit="10"/>
  <path d="m150.1 39.356-6.01 3.466" fill="#f00" stroke="#f00" stroke-linejoin="round" stroke-miterlimit="10"/>
 </g>
 <g fill="none" stroke-linejoin="round" stroke-miterlimit="10" stroke-width=".75049">
  <path d="m155.51 28.519v-6.004" stroke="#ff0101"/>
  <g stroke="#000">
   <path d="m169.09 51.784-2.88 4.503"/>
   <path d="m161.36 39.607 5.25 3.034"/>
   <path d="m188.37 28.519v-6.004"/>
   <path d="m191.37 28.519v-6.004"/>
   <path d="m178.62 42.728 5.25-3.034"/>
   <path d="m213.14 42.648 5.25-3.034"/>
   <path d="m195.88 39.698 5.25 3.029"/>
  </g>
 </g>
 <path d="m185.28 16.718c0-1.464 0.39-2.611 1.18-3.439s1.8-1.242 3.05-1.242c0.81 0 1.54 0.194 2.2 0.583 0.65 0.389 1.15 0.932 1.49 1.628 0.35 0.696 0.52 1.485 0.52 2.367 0 0.895-0.18 1.695-0.54 2.401-0.37 0.706-0.88 1.241-1.54 1.604s-1.37 0.544-2.14 0.544c-0.83 0-1.57-0.2-2.23-0.601-0.65-0.402-1.15-0.949-1.48-1.643-0.34-0.694-0.51-1.428-0.51-2.202zm1.2 0.02c0 1.063 0.29 1.9 0.86 2.512s1.29 0.917 2.15 0.917c0.88 0 1.6-0.308 2.17-0.926s0.85-1.494 0.85-2.63c0-0.718-0.12-1.344-0.36-1.88-0.24-0.535-0.6-0.95-1.07-1.245-0.46-0.295-0.99-0.442-1.57-0.442-0.83 0-1.54 0.283-2.13 0.851-0.6 0.567-0.9 1.515-0.9 2.843zm7.79 4.278" fill-rule="evenodd"/>
 <path d="m184.62 9.7564h10.51v13.509h-10.51z" opacity="0"/>
 <path d="m184.62 9.7564h10.51v13.509h-10.51z" opacity="0" stroke-width=".75049"/>
 <path d="m151.89 21.014v-8.821h1.17v3.622h4.58v-3.622h1.17v8.821h-1.17v-4.158h-4.58v4.158zm7.91 0" fill="#f00" fill-rule="evenodd"/>
 <path d="m150.85 9.7564h9.76v13.509h-9.76z" opacity="0"/>
 <path d="m150.85 9.7564h9.76v13.509h-9.76z" opacity="0" stroke-width=".75049"/>
 <path d="m202.54 45.987c0-1.464 0.4-2.61 1.18-3.439 0.79-0.828 1.8-1.242 3.05-1.242 0.81 0 1.54 0.194 2.2 0.584 0.65 0.389 1.15 0.931 1.49 1.627 0.35 0.696 0.52 1.485 0.52 2.368 0 0.894-0.18 1.694-0.54 2.4s-0.88 1.241-1.54 1.604-1.37 0.544-2.14 0.544c-0.83 0-1.57-0.2-2.23-0.601-0.65-0.401-1.14-0.949-1.48-1.643s-0.51-1.428-0.51-2.202zm1.21 0.02c0 1.063 0.28 1.9 0.85 2.512 0.58 0.612 1.29 0.918 2.15 0.918 0.88 0 1.61-0.309 2.17-0.927 0.57-0.618 0.85-1.494 0.85-2.629 0-0.718-0.12-1.345-0.36-1.881-0.24-0.535-0.6-0.95-1.06-1.245-0.47-0.295-1-0.442-1.58-0.442-0.82 0-1.53 0.283-2.13 0.851s-0.89 1.515-0.89 2.843zm7.78 4.278" fill-rule="evenodd"/>
 <path d="m201.88 39.026h10.51v13.508h-10.51z" opacity="0"/>
 <path d="m201.88 39.026h10.51v13.508h-10.51z" opacity="0" stroke-width=".75049"/>
 <path d="m220.19 40.527v-8.821h1.16v3.622h4.59v-3.622h1.17v8.821h-1.17v-4.158h-4.59v4.158zm7.91 0" fill-rule="evenodd"/>
 <path d="m219.14 29.269h9.76v13.509h-9.76z" opacity="0"/>
 <path d="m219.14 29.269h9.76v13.509h-9.76z" opacity="0" stroke-width=".75049"/>
 <path d="m178.91 68.295v-8.821h1.17v3.622h4.58v-3.622h1.17v8.821h-1.17v-4.158h-4.58v4.158zm7.91 0" fill-rule="evenodd"/>
 <path d="m177.87 57.037h9.75v13.509h-9.75z" opacity="0"/>
 <path d="m177.87 57.037h9.75v13.509h-9.75z" opacity="0" stroke-width=".75049"/>
 <path d="m157.47 68.295v-8.821h3.91c0.79 0 1.38 0.08 1.79 0.238s0.74 0.438 0.98 0.839c0.25 0.401 0.37 0.845 0.37 1.33 0 0.626-0.2 1.153-0.61 1.582-0.4 0.43-1.03 0.702-1.87 0.819 0.3 0.148 0.54 0.294 0.7 0.439 0.34 0.313 0.66 0.704 0.97 1.173l1.53 2.401h-1.47l-1.16-1.835c-0.34-0.53-0.62-0.935-0.85-1.216-0.22-0.28-0.41-0.477-0.59-0.589-0.17-0.113-0.35-0.191-0.53-0.235-0.13-0.03-0.35-0.04-0.65-0.04h-1.35v3.917zm1.17-4.928h2.51c0.53 0 0.95-0.05 1.25-0.165 0.3-0.111 0.53-0.287 0.68-0.53 0.16-0.243 0.24-0.506 0.24-0.791 0-0.417-0.15-0.76-0.46-1.029-0.3-0.269-0.78-0.403-1.43-0.403h-2.79zm6.76 4.928" fill-rule="evenodd"/>
 <path d="m156.85 57.037h9.76v13.509h-9.76z" opacity="0"/>
 <path d="m156.85 57.037h9.76v13.509h-9.76z" opacity="0" stroke-width=".75049"/>
 <path d="m192.23 37.434 1.17 0.295c-0.25 0.958-0.69 1.69-1.32 2.193-0.64 0.503-1.42 0.755-2.33 0.755-0.95 0-1.73-0.194-2.32-0.581-0.6-0.387-1.05-0.947-1.36-1.681s-0.47-1.523-0.47-2.365c0-0.918 0.18-1.72 0.53-2.404s0.85-1.203 1.5-1.558c0.64-0.355 1.36-0.532 2.13-0.532 0.89 0 1.63 0.224 2.23 0.673 0.6 0.45 1.02 1.081 1.26 1.896l-1.15 0.27c-0.21-0.641-0.5-1.109-0.89-1.401-0.39-0.293-0.88-0.44-1.47-0.44-0.68 0-1.24 0.163-1.7 0.488s-0.77 0.761-0.96 1.308c-0.18 0.548-0.28 1.112-0.28 1.694 0 0.75 0.11 1.405 0.33 1.965 0.22 0.559 0.56 0.977 1.02 1.254s0.96 0.415 1.5 0.415c0.65 0 1.21-0.188 1.66-0.565s0.76-0.937 0.92-1.679zm1.66 3.093" fill-rule="evenodd"/>
 <path d="m184.62 29.269h10.51v13.509h-10.51z" opacity="0"/>
 <path d="m184.62 29.269h10.51v13.509h-10.51z" opacity="0" stroke-width=".75049"/>
 <path d="m151.88 40.527v-8.821h1.19l4.64 6.925v-6.925h1.12v8.821h-1.2l-4.63-6.932v6.932zm7.96 0" fill="#f00" fill-rule="evenodd"/>
 <path d="m150.85 29.269h9.76v13.509h-9.76z" opacity="0"/>
 <path d="m150.85 29.269h9.76v13.509h-9.76z" opacity="0" stroke-width=".75049"/>
 <path d="m174.97 47.19 1.17 0.295c-0.25 0.959-0.69 1.69-1.32 2.193-0.64 0.504-1.42 0.755-2.34 0.755-0.95 0-1.72-0.193-2.31-0.58-0.6-0.387-1.05-0.948-1.36-1.682-0.32-0.734-0.47-1.522-0.47-2.365 0-0.918 0.17-1.719 0.53-2.403 0.35-0.684 0.85-1.204 1.49-1.559 0.65-0.355 1.36-0.532 2.14-0.532 0.89 0 1.63 0.225 2.23 0.674s1.02 1.081 1.26 1.895l-1.15 0.271c-0.21-0.642-0.5-1.109-0.89-1.402s-0.88-0.439-1.47-0.439c-0.68 0-1.25 0.162-1.7 0.487-0.46 0.325-0.78 0.761-0.96 1.309-0.19 0.547-0.28 1.112-0.28 1.693 0 0.751 0.11 1.405 0.33 1.965s0.56 0.978 1.02 1.254c0.46 0.277 0.96 0.416 1.5 0.416 0.65 0 1.21-0.189 1.66-0.566s0.76-0.937 0.92-1.679zm1.65 3.093" fill-rule="evenodd"/>
 <path d="m167.36 39.026h10.51v13.508h-10.51z" opacity="0"/>
 <path d="m167.36 39.026h10.51v13.508h-10.51z" opacity="0" stroke-width=".75049"/>
 <path d="m134.63 50.283v-8.821h1.17v3.622h4.58v-3.622h1.17v8.821h-1.17v-4.158h-4.58v4.158zm7.91 0" fill="#00f" fill-rule="evenodd"/>
 <path d="m133.59 39.026h9.75v13.508h-9.75z" opacity="0"/>
 <path d="m133.59 39.026h9.75v13.508h-9.75z" opacity="0" stroke-width=".75049"/>
 <path d="m243.16 41.277h39.35" fill="none" stroke="#000" stroke-linejoin="round" stroke-miterlimit="10" stroke-width=".75049"/>
 <path d="m288.51 41.277-7.5-2.251 1.5 2.251-1.5 2.252z" fill-rule="evenodd"/>
 <path d="m288.51 41.277-7.5-2.251 1.5 2.251-1.5 2.252z" fill="none" stroke="#000" stroke-miterlimit="10" stroke-width=".75049"/>
 <path d="m421.03 74.299h10.5v12.008h-10.5z" opacity="0"/>
 <path d="m421.03 74.299h10.5v12.008h-10.5z" opacity="0" stroke-width=".75049"/>
 <path d="m438.29 84.055h9.75v12.008h-9.75z" opacity="0"/>
 <path d="m438.29 84.055h9.75v12.008h-9.75z" opacity="0" stroke-width=".75049"/>
 <path d="m404.52 84.055h9.75v12.008h-9.75z" opacity="0"/>
 <g stroke-width=".75049">
  <path d="m404.52 84.055h9.75v12.008h-9.75z" opacity="0"/>
  <path d="m432.28 84.519 5.26 3.033" fill="none" stroke="#00f" stroke-linejoin="round" stroke-miterlimit="10"/>
  <path d="m420.28 84.519-5.26 3.033" fill="none" stroke="#00f" stroke-linejoin="round" stroke-miterlimit="10"/>
 </g>
 <path d="m421.69 81.26c0-1.464 0.39-2.61 1.18-3.438 0.78-0.829 1.8-1.243 3.04-1.243 0.81 0 1.55 0.195 2.2 0.584 0.66 0.389 1.15 0.931 1.5 1.627 0.34 0.696 0.51 1.485 0.51 2.368 0 0.894-0.18 1.695-0.54 2.401s-0.87 1.24-1.53 1.603c-0.67 0.363-1.38 0.545-2.15 0.545-0.83 0-1.57-0.201-2.22-0.602-0.66-0.401-1.15-0.949-1.49-1.643s-0.5-1.428-0.5-2.202zm1.2 0.02c0 1.063 0.29 1.9 0.86 2.512s1.29 0.918 2.15 0.918c0.88 0 1.6-0.309 2.17-0.927 0.56-0.618 0.85-1.494 0.85-2.629 0-0.718-0.12-1.345-0.37-1.88-0.24-0.536-0.59-0.951-1.06-1.246s-0.99-0.442-1.57-0.442c-0.83 0-1.54 0.284-2.14 0.851-0.59 0.568-0.89 1.515-0.89 2.843zm7.79 4.278" fill="#00f" fill-rule="evenodd"/>
 <path d="m421.03 74.299h10.5v13.509h-10.5z" opacity="0"/>
 <path d="m421.03 74.299h10.5v13.509h-10.5z" opacity="0" stroke-width=".75049"/>
 <path d="m439.33 95.313v-8.821h1.17v3.622h4.58v-3.622h1.17v8.821h-1.17v-4.158h-4.58v4.158zm7.91 0" fill="#00f" fill-rule="evenodd"/>
 <path d="m438.29 84.055h9.75v13.509h-9.75z" opacity="0"/>
 <path d="m438.29 84.055h9.75v13.509h-9.75z" opacity="0" stroke-width=".75049"/>
 <path d="m405.56 95.313v-8.821h1.17v3.622h4.58v-3.622h1.17v8.821h-1.17v-4.158h-4.58v4.158zm7.91 0" fill="#00f" fill-rule="evenodd"/>
 <path d="m404.52 84.055h9.75v13.509h-9.75z" opacity="0"/>
 <path d="m404.52 84.055h9.75v13.509h-9.75z" opacity="0" stroke-width=".75049"/>
 <path d="m379 82.554h9.75v16.511h-9.75z" opacity="0"/>
 <path d="m379 82.554h9.75v16.511h-9.75z" opacity="0" stroke-width=".75049"/>
 <path d="m382.9 94.373v-2.865h-2.85v-1.198h2.85v-2.844h1.21v2.844h2.84v1.198h-2.84v2.865zm4.86 1.69" fill-rule="evenodd"/>
 <path d="m113.32 24.016h9.76v16.511h-9.76z" opacity="0"/>
 <path d="m113.32 24.016h9.76v16.511h-9.76z" opacity="0" stroke-width=".75049"/>
 <path d="m117.22 35.835v-2.866h-2.84v-1.197h2.84v-2.845h1.21v2.845h2.85v1.197h-2.85v2.866zm4.87 1.69" fill-rule="evenodd"/>
</svg>